<svg id="Слой_1" data-name="Слой 1" xmlns="http://www.w3.org/2000/svg" viewBox="0 0 1169.28 466.78"><defs><style>.cls-1{fill:#3fa9f5;}.cls-2{fill:#ff8536;}.cls-3{fill:#54ce00;}.cls-4{fill:#c00032;}</style></defs><title>logo</title><rect class="cls-1" x="331.76" y="186.05" width="140" height="26" rx="13" transform="translate(9.82 -331.76) rotate(30)"/><path class="cls-2" d="M558.94,369.82v-95l-26-15-43.28-25a13,13,0,0,0-13,22.52l56.28,32.49v80a13,13,0,0,0,13,13h0A13,13,0,0,0,558.94,369.82Z" transform="translate(-143.53 -157.55)"/><rect class="cls-1" x="483.95" y="444.94" width="124.03" height="26" rx="13" transform="translate(860.36 -245.58) rotate(90)"/><rect class="cls-3" x="311.43" y="517.04" width="158.74" height="26" rx="13" transform="translate(777.31 -18.3) rotate(90)"/><rect class="cls-3" x="285.13" y="196.08" width="60" height="26" rx="13" transform="translate(3.23 -287.1) rotate(30)"/><rect class="cls-4" x="409.23" y="532.72" width="67.33" height="26" rx="13" transform="translate(845.07 -54.72) rotate(90)"/><path class="cls-1" d="M505.48,537.85V452.41a14.2,14.2,0,0,0-20.34-12.35l-29.47,17V335.26l-25-14.46-56.19-32.44a13,13,0,1,0-13,22.51l68.23,39.4v129.3a13,13,0,0,0,13,13l.39,0h.14c.36,0,.71,0,1.06-.08l.45-.07.74-.13c.26-.05.51-.13.77-.2l.4-.11c.35-.11.7-.24,1-.38l.09,0a12.87,12.87,0,0,0,1.5-.72l30.23-17.46v64.5a13,13,0,0,0,26,0Z" transform="translate(-143.53 -157.55)"/><path class="cls-3" d="M403.41,426.38V365.13l-26-15L306.11,309l30.53-18.35a1.48,1.48,0,0,1,.13-.08,13,13,0,0,0,1.3-23.16l-83.14-48a13,13,0,1,0-13,22.51l63.91,36.9-31.28,18.8a13,13,0,0,0-.6,22.84l103.45,59.73v46.24a13,13,0,0,0,26,0Z" transform="translate(-143.53 -157.55)"/><rect class="cls-4" x="179.5" y="262.4" width="85" height="26" rx="13" transform="matrix(0.87, 0.5, -0.5, 0.87, 23.91, -231.65)"/><path class="cls-3" d="M351.28,535.5V395.07l-26-15L163.09,286.42a13,13,0,0,0-13,22.52L325.28,410.08V535.5a13,13,0,0,0,26,0Z" transform="translate(-143.53 -157.55)"/><rect class="cls-2" x="141.1" y="353.97" width="63" height="26" rx="13" transform="translate(63.07 -194.68) rotate(30)"/><rect class="cls-1" x="306.3" y="579.83" width="63" height="26" rx="13" transform="translate(787.09 97.48) rotate(90)"/><path class="cls-2" d="M299.73,582.33v-149A14.34,14.34,0,0,0,293,421.46l-67.55-39a13,13,0,1,0-13,22.51l61.3,35.4v142a13,13,0,0,0,26,0Z" transform="translate(-143.53 -157.55)"/><path class="cls-3" d="M247.39,552.09V464.42A13,13,0,0,0,241,451.49l-77.94-45a13,13,0,0,0-17.76,4.76h0A13,13,0,0,0,150.06,429l71.33,41.18v81.9a13,13,0,0,0,26,0Z" transform="translate(-143.53 -157.55)"/><path class="cls-4" d="M195.45,522.33V494.06A13,13,0,0,0,189,481.52l-26-15A13,13,0,0,0,150,489l19.41,11.21v22.08a13,13,0,0,0,26,0Z" transform="translate(-143.53 -157.55)"/><path class="cls-3" d="M504.67,410V303.5l-26-15L371,226.32a13,13,0,0,0-13,22.52l120.67,69.67V410a13,13,0,0,0,13,13h0A13,13,0,0,0,504.67,410Z" transform="translate(-143.53 -157.55)"/><path class="cls-2" d="M886.81,513.24a115.86,115.86,0,0,1-26.2-3.2q-13.77-3.19-26.39-13.76t-21.68-32l-8.67-21.11H703.59l-30.92,68.62h-19.6L764.28,262.92h17L865.7,464.23q6.78,16.61,16.59,26.4a37.59,37.59,0,0,0,22.61,11.31v9.42a65.27,65.27,0,0,1-8.48,1.32A93.72,93.72,0,0,1,886.81,513.24ZM711.5,426.16h85.21l-41.47-98.4Z" transform="translate(-143.53 -157.55)"/><path class="cls-2" d="M929.78,511.74V311.93q0-17-4.71-27.34t-21.68-10.36h-3.77V262.92h45.24q13.2,0,20.55,4.52t10.37,15.08q3,10.56,3,29.41V494.77h130.07v17Z" transform="translate(-143.53 -157.55)"/><path class="cls-2" d="M1137.51,511.74V311.93q0-17-4.72-27.34t-21.67-10.36h-3.77V262.92H1211q10.18,0,23.38,1.32a143.06,143.06,0,0,1,26.95,5.46,87.52,87.52,0,0,1,25.45,12.44,61.25,61.25,0,0,1,18.85,22.06q7.15,13.77,7.16,34.49,0,19.62-7.16,32.61a61.8,61.8,0,0,1-18.28,20.93,88.85,88.85,0,0,1-23.57,12.06,118.88,118.88,0,0,1-23.56,5.47,159.29,159.29,0,0,1-17.91,1.32h-35.81V511.74Zm49-115.74h22.62a67,67,0,0,0,18.85-2.64,39.34,39.34,0,0,0,16.21-9.43q7.15-6.78,11.5-18.28t4.33-28.84q0-17.34-4.33-28.84t-11.31-18.1a39.35,39.35,0,0,0-15.65-9.23A60.52,60.52,0,0,0,1211,278c-2.77,0-6.09.13-10,.37a102.14,102.14,0,0,0-14.51,2.27Z" transform="translate(-143.53 -157.55)"/></svg>